<?xml version="1.0" encoding="utf-8"?>
<!-- Generator: Adobe Illustrator 17.0.0, SVG Export Plug-In . SVG Version: 6.00 Build 0)  -->
<!DOCTYPE svg PUBLIC "-//W3C//DTD SVG 1.1//EN" "http://www.w3.org/Graphics/SVG/1.1/DTD/svg11.dtd">
<svg version="1.1" id="Layer_1" xmlns="http://www.w3.org/2000/svg" xmlns:xlink="http://www.w3.org/1999/xlink" x="0px" y="0px"
	 width="32px" height="32px" viewBox="0 0 32 32" enable-background="new 0 0 32 32" xml:space="preserve">
<path id="_x31_59-volume" d="M19.414,4.253l-8.381,8.382v4.716c0,0.343-0.279,0.622-0.623,0.622c-0.343,0-0.622-0.279-0.622-0.622
	v-4.523H9.621c-1.833,0-3.319,1.486-3.319,3.319v1.577c0,1.833,1.486,3.319,3.319,3.319h1.384v0.142l8.409,8.409
	c0,0,3.983,1.105,3.983-1.66v-9.408c0,0,0-0.005,0-3.207V5.913C23.397,3.146,19.414,4.253,19.414,4.253z"/>
</svg>
